<svg xmlns="http://www.w3.org/2000/svg" viewBox="0 0 1000 1000">
  <style>
    path {
      fill:  #01D277;
    }
  </style>

  <path d="M154.1 845.9c44.9 44.9 97.2 80.2 155.5 104.8C370 976.2 434 989.2 500 989.2s130.1-12.9 190.4-38.5c58.3-24.6 110.6-59.9 155.5-104.8 44.9-44.9 80.2-97.2 104.8-155.5C976.2 630 989.2 566 989.2 500s-12.9-130.1-38.5-190.4c-24.6-58.3-59.9-110.6-104.8-155.5-44.9-44.9-97.2-80.2-155.5-104.8C630.1 23.8 566 10.8 500 10.8S369.9 23.7 309.6 49.3C251.3 73.9 199 109.2 154.1 154.1S73.9 251.3 49.3 309.6C23.8 369.9 10.8 434 10.8 500s12.9 130.1 38.5 190.4c24.6 58.3 59.9 110.6 104.8 155.5zM500 82.2c230.7 0 417.8 187 417.8 417.8 0 230.7-187 417.8-417.8 417.8S82.2 730.7 82.2 500C82.2 269.3 269.3 82.2 500 82.2z"/>
  <path d="M500 990c-66.1 0-130.3-13-190.8-38.5-58.4-24.7-110.8-60-155.7-105-45-45-80.3-97.4-105-155.7C23 630.3 10 566.1 10 500c0-66.1 13-130.3 38.5-190.8 24.7-58.4 60-110.8 105-155.7 45-45 97.4-80.3 155.7-105C369.7 23 433.9 10 500 10c66.1 0 130.3 13 190.7 38.5 58.4 24.7 110.8 60 155.7 105 45 45 80.3 97.4 105 155.7C977 369.7 990 433.9 990 500c0 66.1-13 130.3-38.5 190.8-24.7 58.4-60 110.8-105 155.7-45 45-97.4 80.3-155.7 105C630.3 977 566.1 990 500 990zm0-978.3c-65.9 0-129.8 12.9-190.1 38.4-58.2 24.6-110.4 59.8-155.2 104.6-44.8 44.8-80 97-104.6 155.2C24.6 370.2 11.7 434.1 11.7 500c0 65.9 12.9 129.9 38.4 190.1 24.6 58.2 59.8 110.4 104.6 155.2 44.8 44.8 97 80 155.2 104.6 60.2 25.5 124.2 38.4 190.1 38.4 65.9 0 129.9-12.9 190.1-38.4 58.2-24.6 110.4-59.8 155.2-104.6 44.8-44.8 80-97 104.6-155.2 25.5-60.3 38.4-124.2 38.4-190.1 0-65.9-12.9-129.9-38.4-190.1-24.6-58.2-59.8-110.4-104.6-155.2-44.8-44.8-97-80-155.2-104.6C629.9 24.6 565.9 11.7 500 11.7zm0 906.9c-111.8 0-216.9-43.5-296-122.6-79-79.1-122.6-184.2-122.6-296 0-111.8 43.5-216.9 122.6-296 79.1-79 184.2-122.6 296-122.6 111.8 0 216.9 43.5 296 122.6s122.6 184.2 122.6 296c0 111.8-43.5 216.9-122.6 296-79.1 79-184.2 122.6-296 122.6zm0-835.5c-111.4 0-216.1 43.4-294.8 122.1C126.4 283.9 83.1 388.6 83.1 500s43.4 216.1 122.1 294.8c78.7 78.7 183.4 122.1 294.8 122.1s216.1-43.4 294.8-122.1c78.7-78.7 122.1-183.4 122.1-294.8s-43.4-216.1-122.1-294.8C716.1 126.4 611.4 83.1 500 83.1z"/>
  <path d="M318.2 681.8c7 7 16.1 10.5 25.2 10.5 9.1 0 18.3-3.5 25.2-10.5L500 550.5l131.3 131.3c7 7 16.1 10.5 25.2 10.5 9.1 0 18.3-3.5 25.2-10.5 13.9-13.9 13.9-36.5 0-50.5L550.5 500l131.3-131.3c13.9-13.9 13.9-36.6 0-50.5-13.9-13.9-36.5-13.9-50.5 0L500 449.5 368.7 318.2c-13.9-13.9-36.6-13.9-50.5 0-13.9 13.9-13.9 36.6 0 50.5L449.5 500 318.2 631.3c-13.9 13.9-13.9 36.5 0 50.5z"/>
  <path d="M656.5 693c-9.8 0-18.9-3.8-25.8-10.7L500 551.7 369.3 682.3c-6.9 6.9-16.1 10.7-25.8 10.7s-18.9-3.8-25.8-10.7c-6.9-6.9-10.7-16.1-10.7-25.8 0-9.8 3.8-18.9 10.7-25.8L448.3 500 317.7 369.3c-14.2-14.2-14.2-37.4 0-51.7 6.9-6.9 16.1-10.7 25.8-10.7 9.8 0 18.9 3.8 25.8 10.7L500 448.3l130.7-130.7c6.9-6.9 16.1-10.7 25.8-10.7s18.9 3.8 25.8 10.7c6.9 6.9 10.7 16.1 10.7 25.8s-3.8 18.9-10.7 25.8L551.7 500l130.7 130.7c6.9 6.9 10.7 16.1 10.7 25.8 0 9.8-3.8 18.9-10.7 25.8-7 6.9-16.1 10.7-25.9 10.7zM500 549.3l131.8 131.8c6.6 6.6 15.3 10.2 24.7 10.2 9.3 0 18.1-3.6 24.7-10.2 6.6-6.6 10.2-15.3 10.2-24.7 0-9.3-3.6-18.1-10.2-24.7L549.3 500l131.8-131.8c6.6-6.6 10.2-15.3 10.2-24.7 0-9.3-3.6-18.1-10.2-24.7-6.6-6.6-15.3-10.2-24.7-10.2-9.3 0-18.1 3.6-24.7 10.2L500 450.7 368.2 318.8c-6.6-6.6-15.3-10.2-24.7-10.2s-18.1 3.6-24.7 10.2c-13.6 13.6-13.6 35.7 0 49.3L450.7 500 318.8 631.8c-6.6 6.6-10.2 15.3-10.2 24.7 0 9.3 3.6 18.1 10.2 24.7 6.6 6.6 15.3 10.2 24.7 10.2 9.3 0 18.1-3.6 24.7-10.2L500 549.3z"/>
</svg>
